<svg xmlns="http://www.w3.org/2000/svg" viewBox="0 0 1920 1080" preserveAspectRatio="xMidYMid slice"><defs><linearGradient id="sky" x1="0" y1="0" x2="0" y2="1"><stop stop-color="#050a0e"/><stop offset=".48" stop-color="#111b22"/><stop offset="1" stop-color="#060b0e"/></linearGradient><radialGradient id="fog"><stop stop-color="#a5b4b4" stop-opacity=".22"/><stop offset="1" stop-color="#7e9190" stop-opacity="0"/></radialGradient><linearGradient id="ground" x1="0" y1="0" x2="0" y2="1"><stop stop-color="#18252a" stop-opacity=".15"/><stop offset="1" stop-color="#020507" stop-opacity=".95"/></linearGradient><filter id="blur"><feGaussianBlur stdDeviation="28"/></filter><filter id="soft"><feGaussianBlur stdDeviation="9"/></filter></defs><rect width="1920" height="1080" fill="url(#sky)"/><ellipse cx="960" cy="470" rx="700" ry="270" fill="url(#fog)" filter="url(#blur)"/><ellipse cx="420" cy="690" rx="430" ry="170" fill="url(#fog)" opacity=".55" filter="url(#blur)"/><ellipse cx="1510" cy="670" rx="450" ry="180" fill="url(#fog)" opacity=".5" filter="url(#blur)"/><g fill="#030608" opacity=".96"><path d="M90 850V220q-28-120 8-220h44q-20 120 4 220v630z"/><path d="M130 420Q45 310 0 290v-38q100 18 170 118z"/><path d="M155 500q95-125 205-160l12 35q-115 60-188 174z"/><path d="M330 820V180q-20-90 18-180h38q-18 95 5 180v640z"/><path d="M355 390Q260 240 205 205l14-35q100 30 176 153z"/><path d="M380 470q110-160 230-194l10 38q-120 58-215 198z"/><path d="M650 760V250q-18-120 22-250h35q-17 130 4 250v510z"/><path d="M685 390Q610 265 540 215l15-32q105 38 162 145z"/><path d="M710 455q115-150 210-175l13 36q-112 57-196 190z"/><path d="M1570 790V210q-22-100 18-210h42q-19 110 3 210v580z"/><path d="M1600 410q-100-150-170-184l14-36q120 35 192 165z"/><path d="M1630 485q100-135 225-170l10 37q-120 58-205 186z"/><path d="M1810 850V250q-20-100 16-250h42q-18 120 4 250v600z"/><path d="M1840 410q-95-145-160-185l14-34q105 36 180 160z"/></g><g fill="#0a1115" opacity=".85"><path d="M0 1080V700q170-110 360 0t350 10q170-100 340 15t330 0q170-110 340-5t200 0v360z"/><path d="M0 900q250-170 500-35t470-20q240-115 450 5t500-20v250H0z"/></g><g fill="#182326" opacity=".55" filter="url(#soft)"><ellipse cx="960" cy="700" rx="760" ry="70"/><ellipse cx="960" cy="820" rx="680" ry="55"/><ellipse cx="960" cy="925" rx="520" ry="45"/></g><g fill="#b9c9c6" opacity=".12"><circle cx="270" cy="570" r="2"/><circle cx="540" cy="735" r="2"/><circle cx="840" cy="610" r="1.5"/><circle cx="1160" cy="790" r="2"/><circle cx="1430" cy="600" r="1.5"/><circle cx="1690" cy="740" r="2"/><circle cx="1020" cy="350" r="1.5"/></g><rect width="1920" height="1080" fill="url(#ground)"/></svg>