<svg xmlns="http://www.w3.org/2000/svg" viewBox="0 0 420 120" preserveAspectRatio="none"><rect width="420" height="120" fill="#b9181e"/><path d="M-20 24L95 0l42 18 75-30M40 130l72-78 45 16 95-78M205 130l42-61 76 10 115-66M320 120l42-54 82 4" fill="none" stroke="#4a080a" stroke-width="5" opacity=".72"/><path d="M18 72l34-30 24 10 42-44M155 80l30-28 25 8 45-36M275 102l28-25 32 7 45-38" fill="none" stroke="#ed4a45" stroke-width="2" opacity=".42"/><g fill="#5e0b0e" opacity=".5"><circle cx="28" cy="20" r="3"/><circle cx="155" cy="35" r="2"/><circle cx="260" cy="22" r="4"/><circle cx="350" cy="80" r="3"/><circle cx="90" cy="100" r="2"/></g></svg>